<?xml version="1.0" encoding="UTF-8"?> <svg xmlns="http://www.w3.org/2000/svg" xmlns:xlink="http://www.w3.org/1999/xlink" version="1.1" id="Layer_1" x="0px" y="0px" width="1268.6px" height="671.1px" viewBox="0 0 1268.6 671.1" style="enable-background:new 0 0 1268.6 671.1;" xml:space="preserve"> <style type="text/css"> .st0{fill:#F0F0F0;} .st1{fill:#4385F4;} .st2{fill:#FFFFFF;} .st3{fill:#FFFFFF;stroke:#F0256C;stroke-width:0.9242;stroke-miterlimit:10;} .st4{fill:#F0256C;} .st5{fill:#FFFFFF;stroke:#4385F4;stroke-width:0.9242;stroke-miterlimit:10;} .st6{fill:#FFFFFF;stroke:#F56E96;stroke-width:0.5275;stroke-miterlimit:10;} .st7{fill:none;} .st8{fill:#FF85F4;} .st9{fill:#FFFFFF;stroke:#F56E96;stroke-width:0.4613;stroke-miterlimit:10;} .st10{fill:#F56E96;} .st11{fill:#FDFDFD;stroke:#B1B1B1;stroke-width:8;stroke-miterlimit:10;} .st12{fill:url(#SVGID_1_);} .st13{fill:#FFFFFF;stroke:#F0256C;stroke-miterlimit:10;} .st14{fill:#FFFFFF;stroke:#4385F4;stroke-miterlimit:10;} .st15{fill:#FFFFFF;stroke:#F56E96;stroke-miterlimit:10;} .st16{fill:#FDFDFD;} .st17{fill:#B1B1B1;} .st18{fill:none;stroke:#FDFDFD;stroke-miterlimit:10;} .st19{fill:none;stroke:#4385F4;stroke-miterlimit:10;} </style> <rect class="st0" width="1268.6" height="671.1"></rect> <g> <g> <ellipse transform="matrix(0.9675 -0.2529 0.2529 0.9675 -88.0252 16.0808)" class="st1" cx="18.6" cy="350.5" rx="46.5" ry="46.5"></ellipse> <polygon class="st2" points="7.1,376.7 -4.3,333.1 45.6,345.3 "></polygon> </g> <g> <ellipse transform="matrix(0.9982 -6.031598e-02 6.031598e-02 0.9982 -27.833 64.0448)" class="st1" cx="1046.9" cy="493.1" rx="7.7" ry="7.7"></ellipse> <polygon class="st2" points="1044.3,496.9 1043.8,489.5 1051.5,493 "></polygon> </g> <ellipse transform="matrix(0.9707 -0.2404 0.2404 0.9707 -44.552 43.2085)" class="st1" cx="154.8" cy="204.2" rx="23" ry="23"></ellipse> <polygon class="st2" points="149.1,217.1 143.5,195.6 168.1,201.6 "></polygon> <circle class="st3" cx="763.3" cy="245" r="25.1"></circle> <polygon class="st4" points="757.3,259.3 751.1,235.5 778,242.3 "></polygon> <g> <circle class="st2" cx="79.3" cy="79.1" r="14.9"></circle> <polygon class="st4" points="75.8,87.6 72.1,73.6 88,77.6 "></polygon> </g> <circle class="st1" cx="982.2" cy="109.7" r="27.8"></circle> <polygon class="st2" points="975.5,125.3 968.7,99.3 998.4,106.6 "></polygon> <circle class="st4" cx="701.1" cy="507.9" r="13.7"></circle> <polygon class="st2" points="697.7,515.6 694.3,502.8 709,506.3 "></polygon> <g> <ellipse transform="matrix(0.9675 -0.2529 0.2529 0.9675 10.7928 300.4271)" class="st4" cx="1174.3" cy="108.2" rx="15.7" ry="15.7"></ellipse> <polygon class="st2" points="1167.3,114.9 1169.6,99.8 1183.2,110.2 "></polygon> </g> <g> <circle class="st4" cx="616.5" cy="257.5" r="25.8"></circle> <polygon class="st2" points="610.2,272.2 603.8,247.8 631.5,254.6 "></polygon> </g> <circle class="st5" cx="707.8" cy="391.4" r="39.4"></circle> <polygon class="st1" points="698,413.7 688.3,376.6 730.7,387 "></polygon> <g> <circle class="st6" cx="98.3" cy="589.1" r="27.5"></circle> <polygon class="st1" points="83.5,597.3 94,572.8 112.8,596.6 "></polygon> </g> <path class="st7" d="M872.7,327.2l144.2-37.7l37.7,144.2l-144.2,37.7L872.7,327.2z"></path> <circle class="st8" cx="981.5" cy="206.2" r="3"></circle> <circle class="st1" cx="787.3" cy="550.4" r="5"></circle> <circle class="st4" cx="1046.4" cy="599.8" r="3.5"></circle> <g> <ellipse transform="matrix(0.9954 -9.618582e-02 9.618582e-02 0.9954 -29.7016 116.1547)" class="st9" cx="1190" cy="366.2" rx="18.4" ry="18.4"></ellipse> <polygon class="st10" points="1183.8,375.8 1182,357.9 1200.9,365.9 "></polygon> </g> </g> <circle class="st11" cx="605.9" cy="357.1" r="263.4"></circle> <linearGradient id="SVGID_1_" gradientUnits="userSpaceOnUse" x1="466.2641" y1="298.8361" x2="745.4641" y2="298.8361" gradientTransform="matrix(1 0 0 -1 0 655.8898)"> <stop offset="0" style="stop-color:#4284F3"></stop> <stop offset="0.14" style="stop-color:#4682F1"></stop> <stop offset="0.29" style="stop-color:#527DE9"></stop> <stop offset="0.44" style="stop-color:#6775DD"></stop> <stop offset="0.59" style="stop-color:#8469CC"></stop> <stop offset="0.74" style="stop-color:#A95AB6"></stop> <stop offset="0.88" style="stop-color:#D6489B"></stop> <stop offset="0.96" style="stop-color:#EF3E8C"></stop> <stop offset="1" style="stop-color:#FF6244"></stop> </linearGradient> <path class="st12" d="M605.9,496.7c-77.1,0-139.6-62.5-139.6-139.6s62.5-139.6,139.6-139.6S745.5,280,745.5,357.1l0,0 C745.5,434.1,683,496.6,605.9,496.7C605.9,496.7,605.9,496.7,605.9,496.7z"></path> <circle class="st1" cx="825.1" cy="204.1" r="50.3"></circle> <polygon class="st2" points="806,228.4 806,179.7 854.9,206 "></polygon> <ellipse transform="matrix(0.982 -0.1889 0.1889 0.982 -93.6234 142.3987)" class="st1" cx="700.1" cy="562.3" rx="16.9" ry="16.9"></ellipse> <polygon class="st2" points="695.4,571.5 692.3,555.4 710.1,560.9 "></polygon> <ellipse transform="matrix(1.281734e-02 -0.9999 0.9999 1.281734e-02 -206.8608 838.0181)" class="st1" cx="321" cy="523.8" rx="24.8" ry="24.9"></ellipse> <polygon class="st2" points="311.5,535.7 311.5,511.6 335.6,524.7 "></polygon> <circle class="st13" cx="453.3" cy="146.4" r="27.1"></circle> <polygon class="st4" points="443.1,159.6 443.1,133.1 469.4,147.5 "></polygon> <circle class="st2" cx="820" cy="388.9" r="16.1"></circle> <polygon class="st4" points="813.9,396.9 813.9,381.1 829.5,389.7 "></polygon> <circle class="st1" cx="719.5" cy="64.6" r="30"></circle> <polygon class="st2" points="708.1,79.1 708.1,50 737.2,65.8 "></polygon> <circle class="st4" cx="316.2" cy="404.5" r="14.8"></circle> <polygon class="st2" points="310.5,411.7 310.5,397.3 324.9,405 "></polygon> <circle class="st4" cx="926.9" cy="254.8" r="16.9"></circle> <polygon class="st2" points="917.8,259.8 924.3,244.7 935.6,259.3 "></polygon> <g> <circle class="st4" cx="233.6" cy="80.1" r="27.9"></circle> <polygon class="st2" points="223,93.8 223,66.5 250.2,81.2 "></polygon> </g> <circle class="st14" cx="355.1" cy="284.4" r="42.7"></circle> <polygon class="st1" points="338.8,305.1 338.8,263.6 380.3,286.1 "></polygon> <circle class="st15" cx="824.7" cy="524.7" r="52.1"></circle> <polygon class="st1" points="805,550.1 805,499.5 855.6,527 "></polygon> <path class="st7" d="M545.3,262.3h161.2v161.3H545.3V262.3z"></path> <path class="st2" d="M572.3,303.9l16.8,9.4l-9.4-16.8l9.4-16.8l-16.8,9.4l-16.8-9.4l9.4,16.8l-9.4,16.8L572.3,303.9z M652.9,369.7 l-16.8-9.4l9.4,16.8l-9.4,16.8l16.8-9.4l16.8,9.4l-9.4-16.8l9.4-16.8L652.9,369.7z M669.7,279.7l-16.8,9.4l-16.8-9.4l9.4,16.8 l-9.4,16.8l16.8-9.4l16.8,9.4l-9.4-16.8L669.7,279.7z M618.4,315.2c-2.6-2.6-6.8-2.6-9.5,0c0,0,0,0,0,0l-78.4,78.4 c-2.6,2.6-2.6,6.8,0,9.5c0,0,0,0,0,0l15.7,15.7c2.6,2.6,6.8,2.6,9.4,0c0,0,0,0,0,0l78.3-78.3c2.6-2.6,2.6-6.8,0-9.5c0,0,0,0,0,0 L618.4,315.2z M611.5,352.1l-14.2-14.2l16.4-16.4l14.2,14.2L611.5,352.1z"></path> <circle class="st8" cx="692.3" cy="165.5" r="3.3"></circle> <circle class="st1" cx="394.9" cy="472.6" r="5.4"></circle> <circle class="st4" cx="652.6" cy="595.2" r="3.8"></circle> <g> <ellipse transform="matrix(0.9949 -0.101 0.101 0.9949 -56.2731 51.0155)" class="st15" cx="475.9" cy="581.5" rx="40" ry="40"></ellipse> <polygon class="st10" points="462.6,602.4 458.6,563.7 499.5,580.9 "></polygon> </g> <circle class="st16" cx="996.2" cy="410.1" r="6.9"></circle> <circle class="st16" cx="207.3" cy="622.5" r="5.7"></circle> <circle class="st17" cx="556" cy="44.8" r="4.7"></circle> <circle class="st18" cx="321.9" cy="142.3" r="9.9"></circle> <circle class="st19" cx="193.9" cy="442.8" r="9.9"></circle> </svg> 